<svg width="77" height="21" viewBox="0 0 77 21" fill="none" xmlns="http://www.w3.org/2000/svg">
<path d="M9.332 11.88L6.952 11.488C5.08533 11.152 3.63867 10.4987 2.612 9.528C1.58533 8.53867 1.072 7.25067 1.072 5.664C1.072 3.984 1.744 2.63067 3.088 1.604C4.432 0.577333 6.06533 0.0639997 7.988 0.0639997C10.844 0.0639997 13.2613 1.10933 15.24 3.2L12.916 5.664C11.4973 3.94667 9.808 3.088 7.848 3.088C6.728 3.088 5.87867 3.34 5.3 3.844C4.72133 4.32933 4.432 4.908 4.432 5.58C4.432 7.01733 5.51467 7.904 7.68 8.24L9.64 8.576C11.7493 8.912 13.3173 9.60267 14.344 10.648C15.3893 11.6933 15.912 13.0187 15.912 14.624C15.912 16.304 15.24 17.676 13.896 18.74C12.552 19.7853 10.7227 20.308 8.408 20.308C5.17867 20.308 2.57467 19.0573 0.596 16.556L2.864 14.26C3.57333 15.1933 4.38533 15.9307 5.3 16.472C6.23333 17.0133 7.40933 17.284 8.828 17.284C10.0227 17.284 10.9373 17.0413 11.572 16.556C12.2253 16.0707 12.552 15.4453 12.552 14.68C12.552 13.1867 11.4787 12.2533 9.332 11.88ZM24.5677 20.028C22.7944 20.028 21.5624 19.664 20.8717 18.936C20.1811 18.1893 19.8357 16.9293 19.8357 15.156V9.136H17.8197V6.28H19.8357V2.444H22.9997V6.28H26.2757V9.136H22.9997V14.68C22.9997 15.6693 23.1491 16.332 23.4477 16.668C23.7464 17.004 24.3437 17.172 25.2397 17.172L26.2757 17.116V19.972C25.8651 20.0093 25.2957 20.028 24.5677 20.028ZM37.4101 6.112V9.136C37.2608 9.11733 37.0928 9.108 36.9061 9.108C35.3381 9.108 34.2368 9.54667 33.6021 10.424C32.9861 11.3013 32.6781 12.7013 32.6781 14.624V20H29.4861V6.28H32.6221V7.764C33.5554 6.644 34.9461 6.084 36.7941 6.084C36.9808 6.084 37.1861 6.09333 37.4101 6.112ZM51.498 14.092H42.118C42.1927 15.1187 42.5567 15.9307 43.21 16.528C43.8634 17.1253 44.7034 17.424 45.73 17.424C47.2047 17.424 48.3807 16.78 49.258 15.492L51.414 17.508C49.958 19.3747 48.0634 20.308 45.73 20.308C43.6767 20.308 42.0154 19.6547 40.746 18.348C39.4767 17.0227 38.842 15.3147 38.842 13.224C38.842 11.1707 39.4207 9.444 40.578 8.044C41.754 6.644 43.3127 5.944 45.254 5.944C46.318 5.944 47.2607 6.14933 48.082 6.56C48.922 6.952 49.5847 7.49333 50.07 8.184C50.5554 8.856 50.9194 9.60267 51.162 10.424C51.4047 11.2267 51.526 12.076 51.526 12.972L51.498 14.092ZM45.282 8.856C44.442 8.856 43.77 9.11733 43.266 9.64C42.762 10.1627 42.4354 10.7973 42.286 11.544H48.138C48.1194 10.8347 47.8767 10.2093 47.41 9.668C46.962 9.12667 46.2527 8.856 45.282 8.856ZM66.8926 14.092H57.5126C57.5872 15.1187 57.9512 15.9307 58.6046 16.528C59.2579 17.1253 60.0979 17.424 61.1246 17.424C62.5992 17.424 63.7752 16.78 64.6526 15.492L66.8086 17.508C65.3526 19.3747 63.4579 20.308 61.1246 20.308C59.0712 20.308 57.4099 19.6547 56.1406 18.348C54.8712 17.0227 54.2366 15.3147 54.2366 13.224C54.2366 11.1707 54.8152 9.444 55.9726 8.044C57.1486 6.644 58.7072 5.944 60.6486 5.944C61.7126 5.944 62.6552 6.14933 63.4766 6.56C64.3166 6.952 64.9792 7.49333 65.4646 8.184C65.9499 8.856 66.3139 9.60267 66.5566 10.424C66.7992 11.2267 66.9206 12.076 66.9206 12.972L66.8926 14.092ZM60.6766 8.856C59.8366 8.856 59.1646 9.11733 58.6606 9.64C58.1566 10.1627 57.8299 10.7973 57.6806 11.544H63.5326C63.5139 10.8347 63.2712 10.2093 62.8046 9.668C62.3566 9.12667 61.6472 8.856 60.6766 8.856ZM74.9623 20.028C73.1889 20.028 71.9569 19.664 71.2663 18.936C70.5756 18.1893 70.2303 16.9293 70.2303 15.156V9.136H68.2143V6.28H70.2303V2.444H73.3943V6.28H76.6703V9.136H73.3943V14.68C73.3943 15.6693 73.5436 16.332 73.8423 16.668C74.1409 17.004 74.7383 17.172 75.6343 17.172L76.6703 17.116V19.972C76.2596 20.0093 75.6903 20.028 74.9623 20.028Z" fill="white"/>
</svg>
