<svg width="1919" height="940" viewBox="0 0 1919 940" fill="none" xmlns="http://www.w3.org/2000/svg">
<rect width="1919" height="940" fill="url(#paint0_linear_1_101)" fill-opacity="0.5"/>
<g clip-path="url(#clip0_1_101)">
<path d="M259.832 69.88L257.452 69.488C255.585 69.152 254.139 68.4987 253.112 67.528C252.085 66.5387 251.572 65.2507 251.572 63.664C251.572 61.984 252.244 60.6307 253.588 59.604C254.932 58.5773 256.565 58.064 258.488 58.064C261.344 58.064 263.761 59.1093 265.74 61.2L263.416 63.664C261.997 61.9467 260.308 61.088 258.348 61.088C257.228 61.088 256.379 61.34 255.8 61.844C255.221 62.3293 254.932 62.908 254.932 63.58C254.932 65.0173 256.015 65.904 258.18 66.24L260.14 66.576C262.249 66.912 263.817 67.6027 264.844 68.648C265.889 69.6933 266.412 71.0187 266.412 72.624C266.412 74.304 265.74 75.676 264.396 76.74C263.052 77.7853 261.223 78.308 258.908 78.308C255.679 78.308 253.075 77.0573 251.096 74.556L253.364 72.26C254.073 73.1933 254.885 73.9307 255.8 74.472C256.733 75.0133 257.909 75.284 259.328 75.284C260.523 75.284 261.437 75.0413 262.072 74.556C262.725 74.0707 263.052 73.4453 263.052 72.68C263.052 71.1867 261.979 70.2533 259.832 69.88ZM275.068 78.028C273.294 78.028 272.062 77.664 271.372 76.936C270.681 76.1893 270.336 74.9293 270.336 73.156V67.136H268.32V64.28H270.336V60.444H273.5V64.28H276.776V67.136H273.5V72.68C273.5 73.6693 273.649 74.332 273.948 74.668C274.246 75.004 274.844 75.172 275.74 75.172L276.776 75.116V77.972C276.365 78.0093 275.796 78.028 275.068 78.028ZM287.91 64.112V67.136C287.761 67.1173 287.593 67.108 287.406 67.108C285.838 67.108 284.737 67.5467 284.102 68.424C283.486 69.3013 283.178 70.7013 283.178 72.624V78H279.986V64.28H283.122V65.764C284.055 64.644 285.446 64.084 287.294 64.084C287.481 64.084 287.686 64.0933 287.91 64.112ZM301.998 72.092H292.618C292.693 73.1187 293.057 73.9307 293.71 74.528C294.363 75.1253 295.203 75.424 296.23 75.424C297.705 75.424 298.881 74.78 299.758 73.492L301.914 75.508C300.458 77.3747 298.563 78.308 296.23 78.308C294.177 78.308 292.515 77.6547 291.246 76.348C289.977 75.0227 289.342 73.3147 289.342 71.224C289.342 69.1707 289.921 67.444 291.078 66.044C292.254 64.644 293.813 63.944 295.754 63.944C296.818 63.944 297.761 64.1493 298.582 64.56C299.422 64.952 300.085 65.4933 300.57 66.184C301.055 66.856 301.419 67.6027 301.662 68.424C301.905 69.2267 302.026 70.076 302.026 70.972L301.998 72.092ZM295.782 66.856C294.942 66.856 294.27 67.1173 293.766 67.64C293.262 68.1627 292.935 68.7973 292.786 69.544H298.638C298.619 68.8347 298.377 68.2093 297.91 67.668C297.462 67.1267 296.753 66.856 295.782 66.856ZM317.393 72.092H308.013C308.087 73.1187 308.451 73.9307 309.105 74.528C309.758 75.1253 310.598 75.424 311.625 75.424C313.099 75.424 314.275 74.78 315.153 73.492L317.309 75.508C315.853 77.3747 313.958 78.308 311.625 78.308C309.571 78.308 307.91 77.6547 306.641 76.348C305.371 75.0227 304.737 73.3147 304.737 71.224C304.737 69.1707 305.315 67.444 306.473 66.044C307.649 64.644 309.207 63.944 311.149 63.944C312.213 63.944 313.155 64.1493 313.977 64.56C314.817 64.952 315.479 65.4933 315.965 66.184C316.45 66.856 316.814 67.6027 317.057 68.424C317.299 69.2267 317.421 70.076 317.421 70.972L317.393 72.092ZM311.177 66.856C310.337 66.856 309.665 67.1173 309.161 67.64C308.657 68.1627 308.33 68.7973 308.181 69.544H314.033C314.014 68.8347 313.771 68.2093 313.305 67.668C312.857 67.1267 312.147 66.856 311.177 66.856ZM325.462 78.028C323.689 78.028 322.457 77.664 321.766 76.936C321.076 76.1893 320.73 74.9293 320.73 73.156V67.136H318.714V64.28H320.73V60.444H323.894V64.28H327.17V67.136H323.894V72.68C323.894 73.6693 324.044 74.332 324.342 74.668C324.641 75.004 325.238 75.172 326.134 75.172L327.17 75.116V77.972C326.76 78.0093 326.19 78.028 325.462 78.028Z" fill="#293033"/>
</g>
<rect x="1581.5" y="41" width="188" height="60" rx="16" fill="#161B19"/>
<path d="M1638.2 79.16C1642.14 79.16 1645.08 76.12 1645.08 72C1645.08 67.88 1642.14 64.84 1638.2 64.84C1634.26 64.84 1631.34 67.88 1631.34 72C1631.34 76.12 1634.26 79.16 1638.2 79.16ZM1638.2 77.62C1635.26 77.62 1633.1 75.22 1633.1 72C1633.1 68.78 1635.26 66.38 1638.2 66.38C1641.14 66.38 1643.32 68.78 1643.32 72C1643.32 75.22 1641.14 77.62 1638.2 77.62ZM1647.29 83.08H1648.89V77.38C1649.49 78.46 1650.79 79.16 1652.21 79.16C1655.33 79.16 1657.09 76.9 1657.09 73.96C1657.09 71.02 1655.37 68.76 1652.25 68.76C1650.81 68.76 1649.51 69.48 1648.89 70.58V68.92H1647.29V83.08ZM1652.09 77.72C1650.07 77.72 1648.75 76.24 1648.75 73.96C1648.75 71.68 1650.07 70.2 1652.09 70.2C1654.11 70.2 1655.43 71.68 1655.43 73.96C1655.43 76.24 1654.11 77.72 1652.09 77.72ZM1666.54 75.76C1666.22 77.02 1665.18 77.74 1663.54 77.74C1661.64 77.74 1660.26 76.26 1660.14 74.18H1668.02C1668.04 74.04 1668.06 73.7 1668.06 73.48C1668.06 70.8 1666.3 68.76 1663.36 68.76C1660.4 68.76 1658.56 70.94 1658.56 73.9C1658.56 76.78 1660.56 79.16 1663.54 79.16C1666.04 79.16 1667.82 77.82 1668.16 75.76H1666.54ZM1663.36 70.12C1665.16 70.12 1666.3 71.2 1666.42 72.9H1660.22C1660.52 71.12 1661.66 70.12 1663.36 70.12ZM1670.22 79H1671.82V73.56C1671.82 71.6 1673.06 70.22 1674.78 70.22C1676.3 70.22 1677.3 71.38 1677.3 73.1V79H1678.9V72.84C1678.9 70.38 1677.42 68.76 1675.14 68.76C1673.6 68.76 1672.34 69.46 1671.82 70.86V68.92H1670.22V79ZM1690.37 68.76C1688.17 68.76 1686.37 70.2 1686.19 72.16H1687.69C1687.79 71.06 1688.89 70.12 1690.39 70.12C1691.91 70.12 1693.13 70.98 1693.13 72.36V72.38C1693.13 72.7 1692.93 72.9 1692.55 72.9H1690.21C1687.51 72.9 1686.19 74.08 1686.19 76.14C1686.19 77.88 1687.63 79.16 1689.67 79.16C1691.23 79.16 1692.59 78.42 1693.13 77.26V79H1694.69V72.38C1694.69 70.22 1692.81 68.76 1690.37 68.76ZM1689.91 77.8C1688.71 77.8 1687.83 77.1 1687.83 76.12C1687.83 74.82 1688.55 74.1 1690.31 74.1H1693.13V74.46C1693.13 76.54 1691.93 77.8 1689.91 77.8ZM1697.15 83.08H1698.75V77.38C1699.35 78.46 1700.65 79.16 1702.07 79.16C1705.19 79.16 1706.95 76.9 1706.95 73.96C1706.95 71.02 1705.23 68.76 1702.11 68.76C1700.67 68.76 1699.37 69.48 1698.75 70.58V68.92H1697.15V83.08ZM1701.95 77.72C1699.93 77.72 1698.61 76.24 1698.61 73.96C1698.61 71.68 1699.93 70.2 1701.95 70.2C1703.97 70.2 1705.29 71.68 1705.29 73.96C1705.29 76.24 1703.97 77.72 1701.95 77.72ZM1709.09 83.08H1710.69V77.38C1711.29 78.46 1712.59 79.16 1714.01 79.16C1717.13 79.16 1718.89 76.9 1718.89 73.96C1718.89 71.02 1717.17 68.76 1714.05 68.76C1712.61 68.76 1711.31 69.48 1710.69 70.58V68.92H1709.09V83.08ZM1713.89 77.72C1711.87 77.72 1710.55 76.24 1710.55 73.96C1710.55 71.68 1711.87 70.2 1713.89 70.2C1715.91 70.2 1717.23 71.68 1717.23 73.96C1717.23 76.24 1715.91 77.72 1713.89 77.72Z" fill="white"/>
<path d="M249.5 149L1769.5 149" stroke="#161B19" stroke-opacity="0.12"/>
<g clip-path="url(#clip1_1_101)">
<path d="M268.52 411H281.416V335.608H308.572V324.2H241.364V335.608H268.52V411ZM348.215 390.664C346.479 397.732 340.527 401.7 331.351 401.7C320.439 401.7 312.751 393.64 311.759 381.86H359.499C359.623 380.744 359.747 378.76 359.747 377.148C359.747 361.276 349.455 347.512 330.111 347.512C310.891 347.512 299.979 361.896 299.979 379.38C299.979 396.74 312.007 411.992 331.351 411.992C346.727 411.992 358.011 403.56 360.243 390.664H348.215ZM330.111 357.184C340.403 357.184 346.851 363.508 347.595 373.056H312.131C313.991 362.64 320.315 357.184 330.111 357.184ZM391.228 411.992C405.24 411.992 414.54 404.676 414.54 393.268C414.54 364.748 378.58 380.868 378.58 365.12C378.58 360.036 383.044 356.936 389.74 356.936C395.072 356.936 402.14 359.664 403.008 366.98H414.044C413.3 355.2 403.752 347.512 389.74 347.512C376.596 347.512 367.544 354.704 367.544 365.368C367.544 392.152 403.256 376.528 403.256 393.64C403.256 398.352 398.42 402.196 391.228 402.196C382.796 402.196 377.712 398.104 376.844 390.664H365.932C366.8 403.808 376.596 411.992 391.228 411.992ZM431.018 328.912V348.504H418.246V358.92H431.018V390.54C431.018 403.312 439.078 411 451.726 411H461.522V400.088H452.718C446.642 400.088 443.046 396.368 443.046 389.672V358.92H461.522V348.504H443.046V328.912H431.018ZM468.555 322.216V337.84H482.195V322.216H468.555ZM469.299 411H481.327V348.504H469.299V411ZM494.065 411H506.093V377.148C506.093 366.236 513.037 358.3 522.833 358.3C531.637 358.3 537.465 364.996 537.465 374.916V411H549.493V372.56C549.493 357.68 540.317 347.512 526.181 347.512C516.881 347.512 509.441 351.728 506.093 359.54V348.504H494.065V411ZM609.173 348.504V356.812C605.329 351.356 597.641 347.512 589.333 347.512C570.237 347.512 559.449 361.152 559.449 379.752C559.449 398.352 570.237 411.992 589.457 411.992C598.261 411.992 606.197 408.396 609.173 403.064V413.232C609.173 420.796 603.965 426.252 596.773 426.252H567.881V436.296H598.013C611.653 436.296 621.201 427.12 621.201 413.976V348.504H609.173ZM590.821 401.452C579.289 401.452 571.725 392.896 571.725 379.752C571.725 366.608 579.289 358.052 590.821 358.052C602.477 358.052 610.041 366.608 610.041 379.752C610.041 392.896 602.477 401.452 590.821 401.452ZM286.872 518.992C299.148 518.992 309.564 512.668 313.284 503.368V518H324.94V487.248C324.94 477.948 316.756 472.616 309.936 472.616H287.864V483.032H306.712C310.308 483.032 312.54 485.388 312.54 488.736C312.54 500.02 300.512 507.956 287.244 507.956C270.256 507.956 257.732 495.804 257.732 474.6C257.732 453.396 270.256 441.616 287.368 441.616C300.14 441.616 310.06 448.932 311.796 459.472H325.188C323.452 442.36 307.828 430.208 287.368 430.208C265.42 430.208 244.836 444.964 244.836 474.6C244.836 504.236 265.172 518.992 286.872 518.992ZM372.6 465.92V455.504H365.036C356.232 455.504 351.272 459.224 348.42 467.532V455.504H336.392V518H348.42V489.728C348.42 476.088 352.14 465.92 363.548 465.92H372.6ZM406.028 518.992C424.752 518.992 438.144 505.476 438.144 486.752C438.144 468.028 424.752 454.512 406.028 454.512C387.304 454.512 373.788 468.028 373.788 486.752C373.788 505.476 387.304 518.992 406.028 518.992ZM406.028 508.452C394.124 508.452 386.064 499.524 386.064 486.752C386.064 473.98 394.124 465.052 406.028 465.052C417.808 465.052 425.868 473.98 425.868 486.752C425.868 499.524 417.808 508.452 406.028 508.452ZM502.867 455.504H490.839V489.356C490.839 500.268 483.895 508.204 474.099 508.204C465.295 508.204 459.467 501.508 459.467 491.588V455.504H447.439V493.944C447.439 508.824 456.615 518.992 470.751 518.992C480.051 518.992 487.491 514.776 490.839 506.964V518H502.867V455.504ZM515.799 518H527.827V484.148C527.827 473.236 534.771 465.3 544.567 465.3C553.371 465.3 559.199 471.996 559.199 481.916V518H571.227V479.56C571.227 464.68 562.051 454.512 547.915 454.512C538.615 454.512 531.175 458.728 527.827 466.54V455.504H515.799V518ZM610.571 518.992C618.879 518.992 626.567 514.9 630.287 508.7V518H642.315V429.34H630.287V464.68C626.567 458.604 619.003 454.512 610.447 454.512C591.351 454.512 580.563 468.152 580.563 486.752C580.563 505.352 591.351 518.992 610.571 518.992ZM611.935 508.452C600.403 508.452 592.839 499.772 592.839 486.752C592.839 473.732 600.403 465.052 611.935 465.052C623.591 465.052 631.155 473.732 631.155 486.752C631.155 499.772 623.591 508.452 611.935 508.452ZM677.987 518.992C691.999 518.992 701.299 511.676 701.299 500.268C701.299 471.748 665.339 487.868 665.339 472.12C665.339 467.036 669.803 463.936 676.499 463.936C681.831 463.936 688.899 466.664 689.767 473.98H700.803C700.059 462.2 690.511 454.512 676.499 454.512C663.355 454.512 654.303 461.704 654.303 472.368C654.303 499.152 690.015 483.528 690.015 500.64C690.015 505.352 685.179 509.196 677.987 509.196C669.555 509.196 664.471 505.104 663.603 497.664H652.691C653.559 510.808 663.355 518.992 677.987 518.992Z" fill="#161B19"/>
</g>
<g clip-path="url(#clip2_1_101)">
<path d="M252.166 600H254.124L247.986 584.6H246.292L240.154 600H242.112L243.718 595.842H250.582L252.166 600ZM244.356 594.17L247.15 586.91L249.922 594.17H244.356ZM264.693 600.176C267.509 600.176 269.335 598.68 269.709 596.414H267.993C267.597 597.756 266.387 598.592 264.715 598.592C262.317 598.592 261.129 596.722 261.129 594.456C261.129 592.19 262.295 590.32 264.715 590.32C266.387 590.32 267.773 591.31 267.993 592.652H269.731C269.401 590.188 267.179 588.736 264.693 588.736C261.195 588.736 259.303 591.486 259.303 594.456C259.303 597.426 261.195 600.176 264.693 600.176ZM276.22 600.176C279.52 600.176 281.874 597.778 281.874 594.456C281.874 591.112 279.52 588.736 276.22 588.736C272.942 588.736 270.588 591.112 270.588 594.456C270.588 597.778 272.942 600.176 276.22 600.176ZM276.22 598.592C273.954 598.592 272.392 596.876 272.392 594.456C272.392 592.036 273.954 590.32 276.22 590.32C278.508 590.32 280.07 592.036 280.07 594.456C280.07 596.876 278.508 598.592 276.22 598.592ZM283.566 600H285.326V584.358H283.566V600ZM287.74 600H289.5V584.358H287.74V600ZM299.966 596.436C299.614 597.822 298.47 598.614 296.666 598.614C294.576 598.614 293.058 596.986 292.926 594.698H301.594C301.616 594.544 301.638 594.17 301.638 593.928C301.638 590.98 299.702 588.736 296.468 588.736C293.212 588.736 291.188 591.134 291.188 594.39C291.188 597.558 293.388 600.176 296.666 600.176C299.416 600.176 301.374 598.702 301.748 596.436H299.966ZM296.468 590.232C298.448 590.232 299.702 591.42 299.834 593.29H293.014C293.344 591.332 294.598 590.232 296.468 590.232ZM308.1 600.176C310.916 600.176 312.742 598.68 313.116 596.414H311.4C311.004 597.756 309.794 598.592 308.122 598.592C305.724 598.592 304.536 596.722 304.536 594.456C304.536 592.19 305.702 590.32 308.122 590.32C309.794 590.32 311.18 591.31 311.4 592.652H313.138C312.808 590.188 310.586 588.736 308.1 588.736C304.602 588.736 302.71 591.486 302.71 594.456C302.71 597.426 304.602 600.176 308.1 600.176ZM315.714 585.37V588.912H313.404V590.474H315.714V596.524C315.714 598.68 317.078 600 319.19 600H320.884V598.394H319.256C318.178 598.394 317.474 597.668 317.474 596.436V590.474H320.884V588.912H317.474V585.37H315.714ZM321.983 584.336V586.932H324.029V584.336H321.983ZM322.137 600H323.897V588.912H322.137V600ZM331.133 600.176C334.433 600.176 336.787 597.778 336.787 594.456C336.787 591.112 334.433 588.736 331.133 588.736C327.855 588.736 325.501 591.112 325.501 594.456C325.501 597.778 327.855 600.176 331.133 600.176ZM331.133 598.592C328.867 598.592 327.305 596.876 327.305 594.456C327.305 592.036 328.867 590.32 331.133 590.32C333.421 590.32 334.983 592.036 334.983 594.456C334.983 596.876 333.421 598.592 331.133 598.592ZM338.391 600H340.151V594.016C340.151 591.86 341.515 590.342 343.407 590.342C345.079 590.342 346.179 591.618 346.179 593.51V600H347.939V593.224C347.939 590.518 346.311 588.736 343.803 588.736C342.109 588.736 340.723 589.506 340.151 591.046V588.912H338.391V600ZM360.048 600.176C363.348 600.176 365.702 597.778 365.702 594.456C365.702 591.112 363.348 588.736 360.048 588.736C356.77 588.736 354.416 591.112 354.416 594.456C354.416 597.778 356.77 600.176 360.048 600.176ZM360.048 598.592C357.782 598.592 356.22 596.876 356.22 594.456C356.22 592.036 357.782 590.32 360.048 590.32C362.336 590.32 363.898 592.036 363.898 594.456C363.898 596.876 362.336 598.592 360.048 598.592ZM368.215 600H369.975V590.474H373.429V588.912H369.975V587.812C369.975 586.624 370.679 585.92 371.757 585.92H373.429V584.358H371.669C369.557 584.358 368.215 585.678 368.215 587.79V588.912H365.905V590.474H368.215V600ZM380.752 585.37V588.912H378.442V590.474H380.752V596.524C380.752 598.68 382.116 600 384.228 600H385.922V598.394H384.294C383.216 598.394 382.512 597.668 382.512 596.436V590.474H385.922V588.912H382.512V585.37H380.752ZM395.015 596.436C394.663 597.822 393.519 598.614 391.715 598.614C389.625 598.614 388.107 596.986 387.975 594.698H396.643C396.665 594.544 396.687 594.17 396.687 593.928C396.687 590.98 394.751 588.736 391.517 588.736C388.261 588.736 386.237 591.134 386.237 594.39C386.237 597.558 388.437 600.176 391.715 600.176C394.465 600.176 396.423 598.702 396.797 596.436H395.015ZM391.517 590.232C393.497 590.232 394.751 591.42 394.883 593.29H388.063C388.393 591.332 389.647 590.232 391.517 590.232ZM406.747 600L402.721 594.17L406.395 588.912H404.437L401.753 592.784L399.069 588.912H397.111L400.785 594.17L396.759 600H398.629L401.753 595.534L404.877 600H406.747ZM409.087 585.37V588.912H406.777V590.474H409.087V596.524C409.087 598.68 410.451 600 412.563 600H414.257V598.394H412.629C411.551 598.394 410.847 597.668 410.847 596.436V590.474H414.257V588.912H410.847V585.37H409.087ZM415.356 584.336V586.932H417.402V584.336H415.356ZM415.51 600H417.27V588.912H415.51V600ZM419.6 600H421.36V584.358H419.6V600ZM431.826 596.436C431.474 597.822 430.33 598.614 428.526 598.614C426.436 598.614 424.918 596.986 424.786 594.698H433.454C433.476 594.544 433.498 594.17 433.498 593.928C433.498 590.98 431.562 588.736 428.328 588.736C425.072 588.736 423.048 591.134 423.048 594.39C423.048 597.558 425.248 600.176 428.526 600.176C431.276 600.176 433.234 598.702 433.608 596.436H431.826ZM428.328 590.232C430.308 590.232 431.562 591.42 431.694 593.29H424.874C425.204 591.332 426.458 590.232 428.328 590.232ZM443.963 600.176C446.427 600.176 448.055 598.9 448.055 596.942C448.055 591.86 441.543 594.808 441.543 591.816C441.543 590.848 442.423 590.21 443.721 590.21C444.733 590.21 446.141 590.694 446.295 592.124H447.967C447.835 590.078 446.185 588.736 443.765 588.736C441.411 588.736 439.849 589.968 439.849 591.838C439.849 596.612 446.317 593.642 446.317 596.964C446.317 597.888 445.393 598.658 443.963 598.658C442.357 598.658 441.367 597.888 441.235 596.458H439.563C439.739 598.768 441.411 600.176 443.963 600.176ZM454.009 588.736C451.589 588.736 449.609 590.32 449.411 592.476H451.061C451.171 591.266 452.381 590.232 454.031 590.232C455.703 590.232 457.045 591.178 457.045 592.696V592.718C457.045 593.07 456.825 593.29 456.407 593.29H453.833C450.863 593.29 449.411 594.588 449.411 596.854C449.411 598.768 450.995 600.176 453.239 600.176C454.955 600.176 456.451 599.362 457.045 598.086V600H458.761V592.718C458.761 590.342 456.693 588.736 454.009 588.736ZM453.503 598.68C452.183 598.68 451.215 597.91 451.215 596.832C451.215 595.402 452.007 594.61 453.943 594.61H457.045V595.006C457.045 597.294 455.725 598.68 453.503 598.68ZM460.728 600H462.488V593.488C462.488 591.596 463.588 590.298 465.458 590.298C466.998 590.298 467.944 591.596 467.944 593.488V600H469.704V593.488C469.704 591.596 470.804 590.298 472.652 590.298C474.214 590.298 475.16 591.596 475.16 593.488V600H476.92V593.026C476.92 590.342 475.468 588.736 473.07 588.736C471.376 588.736 469.902 589.77 469.484 591.09C469.088 589.572 467.658 588.736 465.832 588.736C464.138 588.736 462.906 589.704 462.488 591.046V588.912H460.728V600ZM479.255 604.488H481.015V598.218C481.675 599.406 483.105 600.176 484.667 600.176C488.099 600.176 490.035 597.69 490.035 594.456C490.035 591.222 488.143 588.736 484.711 588.736C483.127 588.736 481.697 589.528 481.015 590.738V588.912H479.255V604.488ZM484.535 598.592C482.313 598.592 480.861 596.964 480.861 594.456C480.861 591.948 482.313 590.32 484.535 590.32C486.757 590.32 488.209 591.948 488.209 594.456C488.209 596.964 486.757 598.592 484.535 598.592ZM491.722 600H493.482V584.358H491.722V600ZM503.948 596.436C503.596 597.822 502.452 598.614 500.648 598.614C498.558 598.614 497.04 596.986 496.908 594.698H505.576C505.598 594.544 505.62 594.17 505.62 593.928C505.62 590.98 503.684 588.736 500.45 588.736C497.194 588.736 495.17 591.134 495.17 594.39C495.17 597.558 497.37 600.176 500.648 600.176C503.398 600.176 505.356 598.702 505.73 596.436H503.948ZM500.45 590.232C502.43 590.232 503.684 591.42 503.816 593.29H496.996C497.326 591.332 498.58 590.232 500.45 590.232ZM511.116 600.176C513.58 600.176 515.208 598.9 515.208 596.942C515.208 591.86 508.696 594.808 508.696 591.816C508.696 590.848 509.576 590.21 510.874 590.21C511.886 590.21 513.294 590.694 513.448 592.124H515.12C514.988 590.078 513.338 588.736 510.918 588.736C508.564 588.736 507.002 589.968 507.002 591.838C507.002 596.612 513.47 593.642 513.47 596.964C513.47 597.888 512.546 598.658 511.116 598.658C509.51 598.658 508.52 597.888 508.388 596.458H506.716C506.892 598.768 508.564 600.176 511.116 600.176ZM521.932 600H523.692V584.358H521.932V600ZM530.026 588.736C527.606 588.736 525.626 590.32 525.428 592.476H527.078C527.188 591.266 528.398 590.232 530.048 590.232C531.72 590.232 533.062 591.178 533.062 592.696V592.718C533.062 593.07 532.842 593.29 532.424 593.29H529.85C526.88 593.29 525.428 594.588 525.428 596.854C525.428 598.768 527.012 600.176 529.256 600.176C530.972 600.176 532.468 599.362 533.062 598.086V600H534.778V592.718C534.778 590.342 532.71 588.736 530.026 588.736ZM529.52 598.68C528.2 598.68 527.232 597.91 527.232 596.832C527.232 595.402 528.024 594.61 529.96 594.61H533.062V595.006C533.062 597.294 531.742 598.68 529.52 598.68ZM545.179 588.912H543.331L540.185 597.712L537.039 588.912H535.213L539.349 600.176L537.941 604.488H539.635L541.659 598.482L545.179 588.912ZM555.002 600.176C557.466 600.176 559.094 598.9 559.094 596.942C559.094 591.86 552.582 594.808 552.582 591.816C552.582 590.848 553.462 590.21 554.76 590.21C555.772 590.21 557.18 590.694 557.334 592.124H559.006C558.874 590.078 557.224 588.736 554.804 588.736C552.45 588.736 550.888 589.968 550.888 591.838C550.888 596.612 557.356 593.642 557.356 596.964C557.356 597.888 556.432 598.658 555.002 598.658C553.396 598.658 552.406 597.888 552.274 596.458H550.602C550.778 598.768 552.45 600.176 555.002 600.176ZM560.956 604.488H562.716V598.218C563.376 599.406 564.806 600.176 566.368 600.176C569.8 600.176 571.736 597.69 571.736 594.456C571.736 591.222 569.844 588.736 566.412 588.736C564.828 588.736 563.398 589.528 562.716 590.738V588.912H560.956V604.488ZM566.236 598.592C564.014 598.592 562.562 596.964 562.562 594.456C562.562 591.948 564.014 590.32 566.236 590.32C568.458 590.32 569.91 591.948 569.91 594.456C569.91 596.964 568.458 598.592 566.236 598.592ZM579.517 590.474V588.912H578.109C576.481 588.912 575.557 589.638 575.095 591.156V588.912H573.335V600H575.095V595.116C575.095 592.498 575.733 590.474 577.977 590.474H579.517ZM588.356 596.436C588.004 597.822 586.86 598.614 585.056 598.614C582.966 598.614 581.448 596.986 581.316 594.698H589.984C590.006 594.544 590.028 594.17 590.028 593.928C590.028 590.98 588.092 588.736 584.858 588.736C581.602 588.736 579.578 591.134 579.578 594.39C579.578 597.558 581.778 600.176 585.056 600.176C587.806 600.176 589.764 598.702 590.138 596.436H588.356ZM584.858 590.232C586.838 590.232 588.092 591.42 588.224 593.29H581.404C581.734 591.332 582.988 590.232 584.858 590.232ZM595.81 588.736C593.39 588.736 591.41 590.32 591.212 592.476H592.862C592.972 591.266 594.182 590.232 595.832 590.232C597.504 590.232 598.846 591.178 598.846 592.696V592.718C598.846 593.07 598.626 593.29 598.208 593.29H595.634C592.664 593.29 591.212 594.588 591.212 596.854C591.212 598.768 592.796 600.176 595.04 600.176C596.756 600.176 598.252 599.362 598.846 598.086V600H600.562V592.718C600.562 590.342 598.494 588.736 595.81 588.736ZM595.304 598.68C593.984 598.68 593.016 597.91 593.016 596.832C593.016 595.402 593.808 594.61 595.744 594.61H598.846V595.006C598.846 597.294 597.526 598.68 595.304 598.68ZM607.237 600.176C608.799 600.176 610.251 599.384 610.911 598.174V600H612.671V584.358H610.911V590.716C610.251 589.528 608.799 588.736 607.237 588.736C603.783 588.736 601.891 591.222 601.891 594.456C601.891 597.69 603.783 600.176 607.237 600.176ZM607.391 598.592C605.169 598.592 603.695 596.964 603.695 594.456C603.695 591.948 605.169 590.32 607.391 590.32C609.613 590.32 611.065 591.948 611.065 594.456C611.065 596.964 609.613 598.592 607.391 598.592ZM624.851 600.176C628.151 600.176 630.505 597.778 630.505 594.456C630.505 591.112 628.151 588.736 624.851 588.736C621.573 588.736 619.219 591.112 619.219 594.456C619.219 597.778 621.573 600.176 624.851 600.176ZM624.851 598.592C622.585 598.592 621.023 596.876 621.023 594.456C621.023 592.036 622.585 590.32 624.851 590.32C627.139 590.32 628.701 592.036 628.701 594.456C628.701 596.876 627.139 598.592 624.851 598.592ZM641.657 588.912H639.897V594.896C639.897 597.052 638.533 598.57 636.641 598.57C634.969 598.57 633.869 597.294 633.869 595.402V588.912H632.109V595.688C632.109 598.394 633.737 600.176 636.245 600.176C637.939 600.176 639.325 599.406 639.897 597.866V600H641.657V588.912ZM645.12 585.37V588.912H642.81V590.474H645.12V596.524C645.12 598.68 646.484 600 648.596 600H650.29V598.394H648.662C647.584 598.394 646.88 597.668 646.88 596.436V590.474H650.29V588.912H646.88V585.37H645.12ZM661.399 600.176C664.699 600.176 667.053 597.778 667.053 594.456C667.053 591.112 664.699 588.736 661.399 588.736C658.121 588.736 655.767 591.112 655.767 594.456C655.767 597.778 658.121 600.176 661.399 600.176ZM661.399 598.592C659.133 598.592 657.571 596.876 657.571 594.456C657.571 592.036 659.133 590.32 661.399 590.32C663.687 590.32 665.249 592.036 665.249 594.456C665.249 596.876 663.687 598.592 661.399 598.592ZM668.657 600H670.417V594.016C670.417 591.86 671.781 590.342 673.673 590.342C675.345 590.342 676.445 591.618 676.445 593.51V600H678.205V593.224C678.205 590.518 676.577 588.736 674.069 588.736C672.375 588.736 670.989 589.506 670.417 591.046V588.912H668.657V600ZM686.529 585.37V588.912H684.219V590.474H686.529V596.524C686.529 598.68 687.893 600 690.005 600H691.699V598.394H690.071C688.993 598.394 688.289 597.668 688.289 596.436V590.474H691.699V588.912H688.289V585.37H686.529ZM693.191 600H694.951V594.016C694.951 591.86 696.315 590.342 698.207 590.342C699.879 590.342 700.979 591.618 700.979 593.51V600H702.739V593.224C702.739 590.518 701.111 588.736 698.603 588.736C696.909 588.736 695.523 589.506 694.951 591.046V584.358H693.191V600ZM713.129 596.436C712.777 597.822 711.633 598.614 709.829 598.614C707.739 598.614 706.221 596.986 706.089 594.698H714.757C714.779 594.544 714.801 594.17 714.801 593.928C714.801 590.98 712.865 588.736 709.631 588.736C706.375 588.736 704.351 591.134 704.351 594.39C704.351 597.558 706.551 600.176 709.829 600.176C712.579 600.176 714.537 598.702 714.911 596.436H713.129ZM709.631 590.232C711.611 590.232 712.865 591.42 712.997 593.29H706.177C706.507 591.332 707.761 590.232 709.631 590.232ZM722.583 585.37V588.912H720.273V590.474H722.583V596.524C722.583 598.68 723.947 600 726.059 600H727.753V598.394H726.125C725.047 598.394 724.343 597.668 724.343 596.436V590.474H727.753V588.912H724.343V585.37H722.583ZM732.799 588.736C730.379 588.736 728.399 590.32 728.201 592.476H729.851C729.961 591.266 731.171 590.232 732.821 590.232C734.493 590.232 735.835 591.178 735.835 592.696V592.718C735.835 593.07 735.615 593.29 735.197 593.29H732.623C729.653 593.29 728.201 594.588 728.201 596.854C728.201 598.768 729.785 600.176 732.029 600.176C733.745 600.176 735.241 599.362 735.835 598.086V600H737.551V592.718C737.551 590.342 735.483 588.736 732.799 588.736ZM732.293 598.68C730.973 598.68 730.005 597.91 730.005 596.832C730.005 595.402 730.797 594.61 732.733 594.61H735.835V595.006C735.835 597.294 734.515 598.68 732.293 598.68ZM745.039 600.176C748.493 600.176 750.385 597.69 750.385 594.456C750.385 591.222 748.493 588.736 745.039 588.736C743.477 588.736 742.025 589.528 741.365 590.716V584.358H739.605V600H741.365V598.174C742.025 599.384 743.477 600.176 745.039 600.176ZM744.885 598.592C742.663 598.592 741.211 596.964 741.211 594.456C741.211 591.948 742.663 590.32 744.885 590.32C747.107 590.32 748.581 591.948 748.581 594.456C748.581 596.964 747.107 598.592 744.885 598.592ZM752.072 600H753.832V584.358H752.072V600ZM764.298 596.436C763.946 597.822 762.802 598.614 760.998 598.614C758.908 598.614 757.39 596.986 757.258 594.698H765.926C765.948 594.544 765.97 594.17 765.97 593.928C765.97 590.98 764.034 588.736 760.8 588.736C757.544 588.736 755.52 591.134 755.52 594.39C755.52 597.558 757.72 600.176 760.998 600.176C763.748 600.176 765.706 598.702 766.08 596.436H764.298ZM760.8 590.232C762.78 590.232 764.034 591.42 764.166 593.29H757.346C757.676 591.332 758.93 590.232 760.8 590.232ZM767.344 597.932V600H769.302V597.932H767.344ZM246.622 626.176C249.834 626.176 252.254 624.592 252.254 621.798C252.254 616.012 243.19 618.454 243.19 614.516C243.19 613.042 244.422 612.118 246.512 612.118C248.58 612.118 249.922 613.24 250.098 614.978H251.946C251.726 612.206 249.592 610.424 246.512 610.424C243.432 610.424 241.298 612.074 241.298 614.516C241.298 620.016 250.296 617.838 250.296 621.798C250.296 623.668 248.756 624.482 246.622 624.482C244.224 624.482 242.816 623.096 242.618 620.962H240.77C240.968 624.108 243.168 626.176 246.622 626.176ZM258.035 614.736C255.615 614.736 253.635 616.32 253.437 618.476H255.087C255.197 617.266 256.407 616.232 258.057 616.232C259.729 616.232 261.071 617.178 261.071 618.696V618.718C261.071 619.07 260.851 619.29 260.433 619.29H257.859C254.889 619.29 253.437 620.588 253.437 622.854C253.437 624.768 255.021 626.176 257.265 626.176C258.981 626.176 260.477 625.362 261.071 624.086V626H262.787V618.718C262.787 616.342 260.719 614.736 258.035 614.736ZM257.529 624.68C256.209 624.68 255.241 623.91 255.241 622.832C255.241 621.402 256.033 620.61 257.969 620.61H261.071V621.006C261.071 623.294 259.751 624.68 257.529 624.68ZM264.753 626H266.513V619.488C266.513 617.596 267.613 616.298 269.483 616.298C271.023 616.298 271.969 617.596 271.969 619.488V626H273.729V619.488C273.729 617.596 274.829 616.298 276.677 616.298C278.239 616.298 279.185 617.596 279.185 619.488V626H280.945V619.026C280.945 616.342 279.493 614.736 277.095 614.736C275.401 614.736 273.927 615.77 273.509 617.09C273.113 615.572 271.683 614.736 269.857 614.736C268.163 614.736 266.931 615.704 266.513 617.046V614.912H264.753V626ZM287.087 626.176C289.551 626.176 291.179 624.9 291.179 622.942C291.179 617.86 284.667 620.808 284.667 617.816C284.667 616.848 285.547 616.21 286.845 616.21C287.857 616.21 289.265 616.694 289.419 618.124H291.091C290.959 616.078 289.309 614.736 286.889 614.736C284.535 614.736 282.973 615.968 282.973 617.838C282.973 622.612 289.441 619.642 289.441 622.964C289.441 623.888 288.517 624.658 287.087 624.658C285.481 624.658 284.491 623.888 284.359 622.458H282.687C282.863 624.768 284.535 626.176 287.087 626.176ZM297.133 614.736C294.713 614.736 292.733 616.32 292.535 618.476H294.185C294.295 617.266 295.505 616.232 297.155 616.232C298.827 616.232 300.169 617.178 300.169 618.696V618.718C300.169 619.07 299.949 619.29 299.531 619.29H296.957C293.987 619.29 292.535 620.588 292.535 622.854C292.535 624.768 294.119 626.176 296.363 626.176C298.079 626.176 299.575 625.362 300.169 624.086V626H301.885V618.718C301.885 616.342 299.817 614.736 297.133 614.736ZM296.627 624.68C295.307 624.68 294.339 623.91 294.339 622.832C294.339 621.402 295.131 620.61 297.067 620.61H300.169V621.006C300.169 623.294 298.849 624.68 296.627 624.68ZM311.023 626H312.717L315.423 617.178L318.151 626H319.845L323.211 614.912H321.429L318.987 623.712L316.303 614.912H314.587L311.859 623.712L309.417 614.912H307.657L311.023 626ZM328.153 614.736C325.733 614.736 323.753 616.32 323.555 618.476H325.205C325.315 617.266 326.525 616.232 328.175 616.232C329.847 616.232 331.189 617.178 331.189 618.696V618.718C331.189 619.07 330.969 619.29 330.551 619.29H327.977C325.007 619.29 323.555 620.588 323.555 622.854C323.555 624.768 325.139 626.176 327.383 626.176C329.099 626.176 330.595 625.362 331.189 624.086V626H332.905V618.718C332.905 616.342 330.837 614.736 328.153 614.736ZM327.647 624.68C326.327 624.68 325.359 623.91 325.359 622.832C325.359 621.402 326.151 620.61 328.087 620.61H331.189V621.006C331.189 623.294 329.869 624.68 327.647 624.68ZM338.765 626.176C341.229 626.176 342.857 624.9 342.857 622.942C342.857 617.86 336.345 620.808 336.345 617.816C336.345 616.848 337.225 616.21 338.523 616.21C339.535 616.21 340.943 616.694 341.097 618.124H342.769C342.637 616.078 340.987 614.736 338.567 614.736C336.213 614.736 334.651 615.968 334.651 617.838C334.651 622.612 341.119 619.642 341.119 622.964C341.119 623.888 340.195 624.658 338.765 624.658C337.159 624.658 336.169 623.888 336.037 622.458H334.365C334.541 624.768 336.213 626.176 338.765 626.176ZM353.673 614.736C351.253 614.736 349.273 616.32 349.075 618.476H350.725C350.835 617.266 352.045 616.232 353.695 616.232C355.367 616.232 356.709 617.178 356.709 618.696V618.718C356.709 619.07 356.489 619.29 356.071 619.29H353.497C350.527 619.29 349.075 620.588 349.075 622.854C349.075 624.768 350.659 626.176 352.903 626.176C354.619 626.176 356.115 625.362 356.709 624.086V626H358.425V618.718C358.425 616.342 356.357 614.736 353.673 614.736ZM353.167 624.68C351.847 624.68 350.879 623.91 350.879 622.832C350.879 621.402 351.671 620.61 353.607 620.61H356.709V621.006C356.709 623.294 355.389 624.68 353.167 624.68ZM366.463 611.37V614.912H364.153V616.474H366.463V622.524C366.463 624.68 367.827 626 369.939 626H371.633V624.394H370.005C368.927 624.394 368.223 623.668 368.223 622.436V616.474H371.633V614.912H368.223V611.37H366.463ZM379.068 616.474V614.912H377.66C376.032 614.912 375.108 615.638 374.646 617.156V614.912H372.886V626H374.646V621.116C374.646 618.498 375.284 616.474 377.528 616.474H379.068ZM384.076 614.736C381.656 614.736 379.676 616.32 379.478 618.476H381.128C381.238 617.266 382.448 616.232 384.098 616.232C385.77 616.232 387.112 617.178 387.112 618.696V618.718C387.112 619.07 386.892 619.29 386.474 619.29H383.9C380.93 619.29 379.478 620.588 379.478 622.854C379.478 624.768 381.062 626.176 383.306 626.176C385.022 626.176 386.518 625.362 387.112 624.086V626H388.828V618.718C388.828 616.342 386.76 614.736 384.076 614.736ZM383.57 624.68C382.25 624.68 381.282 623.91 381.282 622.832C381.282 621.402 382.074 620.61 384.01 620.61H387.112V621.006C387.112 623.294 385.792 624.68 383.57 624.68ZM393.333 626H395.159L399.229 614.912H397.381L394.235 623.8L391.089 614.912H389.263L393.333 626ZM408.071 622.436C407.719 623.822 406.575 624.614 404.771 624.614C402.681 624.614 401.163 622.986 401.031 620.698H409.699C409.721 620.544 409.743 620.17 409.743 619.928C409.743 616.98 407.807 614.736 404.573 614.736C401.317 614.736 399.293 617.134 399.293 620.39C399.293 623.558 401.493 626.176 404.771 626.176C407.521 626.176 409.479 624.702 409.853 622.436H408.071ZM404.573 616.232C406.553 616.232 407.807 617.42 407.939 619.29H401.119C401.449 617.332 402.703 616.232 404.573 616.232ZM411.541 626H413.301V610.358H411.541V626ZM415.715 626H417.475V610.358H415.715V626ZM419.647 610.336V612.932H421.693V610.336H419.647ZM419.801 626H421.561V614.912H419.801V626ZM423.803 626H425.563V620.016C425.563 617.86 426.927 616.342 428.819 616.342C430.491 616.342 431.591 617.618 431.591 619.51V626H433.351V619.224C433.351 616.518 431.723 614.736 429.215 614.736C427.521 614.736 426.135 615.506 425.563 617.046V614.912H423.803V626ZM444.074 614.912V616.54C443.392 615.484 441.896 614.736 440.4 614.736C436.946 614.736 435.054 617.222 435.054 620.456C435.054 623.69 436.946 626.176 440.4 626.176C442.072 626.176 443.546 625.494 444.074 624.46V626.418C444.074 627.892 443.062 628.97 441.632 628.97H436.506V630.488H441.742C444.14 630.488 445.834 628.838 445.834 626.484V614.912H444.074ZM440.554 624.592C438.31 624.592 436.858 622.964 436.858 620.456C436.858 617.948 438.31 616.32 440.554 616.32C442.776 616.32 444.228 617.948 444.228 620.456C444.228 622.964 442.776 624.592 440.554 624.592ZM456.912 626.176C459.376 626.176 461.004 624.9 461.004 622.942C461.004 617.86 454.492 620.808 454.492 617.816C454.492 616.848 455.372 616.21 456.67 616.21C457.682 616.21 459.09 616.694 459.244 618.124H460.916C460.784 616.078 459.134 614.736 456.714 614.736C454.36 614.736 452.798 615.968 452.798 617.838C452.798 622.612 459.266 619.642 459.266 622.964C459.266 623.888 458.342 624.658 456.912 624.658C455.306 624.658 454.316 623.888 454.184 622.458H452.512C452.688 624.768 454.36 626.176 456.912 626.176ZM466.958 614.736C464.538 614.736 462.558 616.32 462.36 618.476H464.01C464.12 617.266 465.33 616.232 466.98 616.232C468.652 616.232 469.994 617.178 469.994 618.696V618.718C469.994 619.07 469.774 619.29 469.356 619.29H466.782C463.812 619.29 462.36 620.588 462.36 622.854C462.36 624.768 463.944 626.176 466.188 626.176C467.904 626.176 469.4 625.362 469.994 624.086V626H471.71V618.718C471.71 616.342 469.642 614.736 466.958 614.736ZM466.452 624.68C465.132 624.68 464.164 623.91 464.164 622.832C464.164 621.402 464.956 620.61 466.892 620.61H469.994V621.006C469.994 623.294 468.674 624.68 466.452 624.68ZM473.765 626H475.525V610.358H473.765V626ZM485.991 622.436C485.639 623.822 484.495 624.614 482.691 624.614C480.601 624.614 479.083 622.986 478.951 620.698H487.619C487.641 620.544 487.663 620.17 487.663 619.928C487.663 616.98 485.727 614.736 482.493 614.736C479.237 614.736 477.213 617.134 477.213 620.39C477.213 623.558 479.413 626.176 482.691 626.176C485.441 626.176 487.399 624.702 487.773 622.436H485.991ZM482.493 616.232C484.473 616.232 485.727 617.42 485.859 619.29H479.039C479.369 617.332 480.623 616.232 482.493 616.232ZM493.159 626.176C495.623 626.176 497.251 624.9 497.251 622.942C497.251 617.86 490.739 620.808 490.739 617.816C490.739 616.848 491.619 616.21 492.917 616.21C493.929 616.21 495.337 616.694 495.491 618.124H497.163C497.031 616.078 495.381 614.736 492.961 614.736C490.607 614.736 489.045 615.968 489.045 617.838C489.045 622.612 495.513 619.642 495.513 622.964C495.513 623.888 494.589 624.658 493.159 624.658C491.553 624.658 490.563 623.888 490.431 622.458H488.759C488.935 624.768 490.607 626.176 493.159 626.176ZM499.025 626H500.785V619.488C500.785 617.596 501.885 616.298 503.755 616.298C505.295 616.298 506.241 617.596 506.241 619.488V626H508.001V619.488C508.001 617.596 509.101 616.298 510.949 616.298C512.511 616.298 513.457 617.596 513.457 619.488V626H515.217V619.026C515.217 616.342 513.765 614.736 511.367 614.736C509.673 614.736 508.199 615.77 507.781 617.09C507.385 615.572 505.955 614.736 504.129 614.736C502.435 614.736 501.203 615.704 500.785 617.046V614.912H499.025V626ZM521.472 614.736C519.052 614.736 517.072 616.32 516.874 618.476H518.524C518.634 617.266 519.844 616.232 521.494 616.232C523.166 616.232 524.508 617.178 524.508 618.696V618.718C524.508 619.07 524.288 619.29 523.87 619.29H521.296C518.326 619.29 516.874 620.588 516.874 622.854C516.874 624.768 518.458 626.176 520.702 626.176C522.418 626.176 523.914 625.362 524.508 624.086V626H526.224V618.718C526.224 616.342 524.156 614.736 521.472 614.736ZM520.966 624.68C519.646 624.68 518.678 623.91 518.678 622.832C518.678 621.402 519.47 620.61 521.406 620.61H524.508V621.006C524.508 623.294 523.188 624.68 520.966 624.68ZM528.191 626H529.951V620.016C529.951 617.86 531.315 616.342 533.207 616.342C534.879 616.342 535.979 617.618 535.979 619.51V626H537.739V619.224C537.739 616.518 536.111 614.736 533.603 614.736C531.909 614.736 530.523 615.506 529.951 617.046V614.912H528.191V626ZM544 614.736C541.58 614.736 539.6 616.32 539.402 618.476H541.052C541.162 617.266 542.372 616.232 544.022 616.232C545.694 616.232 547.036 617.178 547.036 618.696V618.718C547.036 619.07 546.816 619.29 546.398 619.29H543.824C540.854 619.29 539.402 620.588 539.402 622.854C539.402 624.768 540.986 626.176 543.23 626.176C544.946 626.176 546.442 625.362 547.036 624.086V626H548.752V618.718C548.752 616.342 546.684 614.736 544 614.736ZM543.494 624.68C542.174 624.68 541.206 623.91 541.206 622.832C541.206 621.402 541.998 620.61 543.934 620.61H547.036V621.006C547.036 623.294 545.716 624.68 543.494 624.68ZM550.719 626H552.479V620.016C552.479 617.86 553.843 616.342 555.735 616.342C557.407 616.342 558.507 617.618 558.507 619.51V626H560.267V619.224C560.267 616.518 558.639 614.736 556.131 614.736C554.437 614.736 553.051 615.506 552.479 617.046V614.912H550.719V626ZM567.228 626.176C568.79 626.176 570.242 625.384 570.902 624.174V626H572.662V610.358H570.902V616.716C570.242 615.528 568.79 614.736 567.228 614.736C563.774 614.736 561.882 617.222 561.882 620.456C561.882 623.69 563.774 626.176 567.228 626.176ZM567.382 624.592C565.16 624.592 563.686 622.964 563.686 620.456C563.686 617.948 565.16 616.32 567.382 616.32C569.604 616.32 571.056 617.948 571.056 620.456C571.056 622.964 569.604 624.592 567.382 624.592ZM584.028 614.736C581.608 614.736 579.628 616.32 579.43 618.476H581.08C581.19 617.266 582.4 616.232 584.05 616.232C585.722 616.232 587.064 617.178 587.064 618.696V618.718C587.064 619.07 586.844 619.29 586.426 619.29H583.852C580.882 619.29 579.43 620.588 579.43 622.854C579.43 624.768 581.014 626.176 583.258 626.176C584.974 626.176 586.47 625.362 587.064 624.086V626H588.78V618.718C588.78 616.342 586.712 614.736 584.028 614.736ZM583.522 624.68C582.202 624.68 581.234 623.91 581.234 622.832C581.234 621.402 582.026 620.61 583.962 620.61H587.064V621.006C587.064 623.294 585.744 624.68 583.522 624.68ZM596.269 626.176C599.723 626.176 601.615 623.69 601.615 620.456C601.615 617.222 599.723 614.736 596.269 614.736C594.707 614.736 593.255 615.528 592.595 616.716V610.358H590.835V626H592.595V624.174C593.255 625.384 594.707 626.176 596.269 626.176ZM596.115 624.592C593.893 624.592 592.441 622.964 592.441 620.456C592.441 617.948 593.893 616.32 596.115 616.32C598.337 616.32 599.811 617.948 599.811 620.456C599.811 622.964 598.337 624.592 596.115 624.592ZM608.208 626.176C611.508 626.176 613.862 623.778 613.862 620.456C613.862 617.112 611.508 614.736 608.208 614.736C604.93 614.736 602.576 617.112 602.576 620.456C602.576 623.778 604.93 626.176 608.208 626.176ZM608.208 624.592C605.942 624.592 604.38 622.876 604.38 620.456C604.38 618.036 605.942 616.32 608.208 616.32C610.496 616.32 612.058 618.036 612.058 620.456C612.058 622.876 610.496 624.592 608.208 624.592ZM618.005 626H619.831L623.901 614.912H622.053L618.907 623.8L615.761 614.912H613.935L618.005 626ZM632.743 622.436C632.391 623.822 631.247 624.614 629.443 624.614C627.353 624.614 625.835 622.986 625.703 620.698H634.371C634.393 620.544 634.415 620.17 634.415 619.928C634.415 616.98 632.479 614.736 629.245 614.736C625.989 614.736 623.965 617.134 623.965 620.39C623.965 623.558 626.165 626.176 629.443 626.176C632.193 626.176 634.151 624.702 634.525 622.436H632.743ZM629.245 616.232C631.225 616.232 632.479 617.42 632.611 619.29H625.791C626.121 617.332 627.375 616.232 629.245 616.232ZM640.832 610.336V612.932H642.878V610.336H640.832ZM640.986 626H642.746V614.912H640.986V626ZM646.198 611.37V614.912H643.888V616.474H646.198V622.524C646.198 624.68 647.562 626 649.674 626H651.368V624.394H649.74C648.662 624.394 647.958 623.668 647.958 622.436V616.474H651.368V614.912H647.958V611.37H646.198ZM658.692 611.37V614.912H656.382V616.474H658.692V622.524C658.692 624.68 660.056 626 662.168 626H663.862V624.394H662.234C661.156 624.394 660.452 623.668 660.452 622.436V616.474H663.862V614.912H660.452V611.37H658.692ZM665.354 626H667.114V620.016C667.114 617.86 668.478 616.342 670.37 616.342C672.042 616.342 673.142 617.618 673.142 619.51V626H674.902V619.224C674.902 616.518 673.274 614.736 670.766 614.736C669.072 614.736 667.686 615.506 667.114 617.046V610.358H665.354V626ZM685.293 622.436C684.941 623.822 683.797 624.614 681.993 624.614C679.903 624.614 678.385 622.986 678.253 620.698H686.921C686.943 620.544 686.965 620.17 686.965 619.928C686.965 616.98 685.029 614.736 681.795 614.736C678.539 614.736 676.515 617.134 676.515 620.39C676.515 623.558 678.715 626.176 681.993 626.176C684.743 626.176 686.701 624.702 687.075 622.436H685.293ZM681.795 616.232C683.775 616.232 685.029 617.42 685.161 619.29H678.341C678.671 617.332 679.925 616.232 681.795 616.232ZM694.856 616.474V614.912H693.448C691.82 614.912 690.896 615.638 690.434 617.156V614.912H688.674V626H690.434V621.116C690.434 618.498 691.072 616.474 693.316 616.474H694.856ZM703.695 622.436C703.343 623.822 702.199 624.614 700.395 624.614C698.305 624.614 696.787 622.986 696.655 620.698H705.323C705.345 620.544 705.367 620.17 705.367 619.928C705.367 616.98 703.431 614.736 700.197 614.736C696.941 614.736 694.917 617.134 694.917 620.39C694.917 623.558 697.117 626.176 700.395 626.176C703.145 626.176 705.103 624.702 705.477 622.436H703.695ZM700.197 616.232C702.177 616.232 703.431 617.42 703.563 619.29H696.743C697.073 617.332 698.327 616.232 700.197 616.232ZM706.741 623.932V626H708.699V623.932H706.741Z" fill="#293033"/>
</g>
<g clip-path="url(#clip3_1_101)">
<rect x="240" y="686" width="188" height="60" rx="16" fill="#161B19"/>
<path d="M303.234 724H308.554C311.434 724 313.134 722.44 313.134 719.92C313.134 717.96 312.094 716.82 310.654 716.34C311.594 715.94 312.514 714.9 312.514 713.6C312.514 711.32 310.894 710 308.234 710H303.234V724ZM304.934 715.8V711.5H308.194C309.874 711.5 310.814 712.2 310.814 713.64C310.814 715.08 309.874 715.8 308.194 715.8H304.934ZM304.934 722.46V717.32H308.274C310.334 717.32 311.394 718.22 311.394 719.9C311.394 721.56 310.334 722.46 308.274 722.46H304.934ZM319.84 724.16C322.84 724.16 324.98 721.98 324.98 718.96C324.98 715.92 322.84 713.76 319.84 713.76C316.86 713.76 314.72 715.92 314.72 718.96C314.72 721.98 316.86 724.16 319.84 724.16ZM319.84 722.72C317.78 722.72 316.36 721.16 316.36 718.96C316.36 716.76 317.78 715.2 319.84 715.2C321.92 715.2 323.34 716.76 323.34 718.96C323.34 721.16 321.92 722.72 319.84 722.72ZM332.659 715.34V713.92H331.379C329.899 713.92 329.059 714.58 328.639 715.96V713.92H327.039V724H328.639V719.56C328.639 717.18 329.219 715.34 331.259 715.34H332.659ZM339.983 715.34V713.92H338.703C337.223 713.92 336.383 714.58 335.963 715.96V713.92H334.363V724H335.963V719.56C335.963 717.18 336.543 715.34 338.583 715.34H339.983ZM345.758 724.16C348.758 724.16 350.898 721.98 350.898 718.96C350.898 715.92 348.758 713.76 345.758 713.76C342.778 713.76 340.638 715.92 340.638 718.96C340.638 721.98 342.778 724.16 345.758 724.16ZM345.758 722.72C343.698 722.72 342.278 721.16 342.278 718.96C342.278 716.76 343.698 715.2 345.758 715.2C347.838 715.2 349.258 716.76 349.258 718.96C349.258 721.16 347.838 722.72 345.758 722.72ZM354.803 724H356.343L358.803 715.98L361.283 724H362.823L365.883 713.92H364.263L362.043 721.92L359.603 713.92H358.043L355.563 721.92L353.343 713.92H351.743L354.803 724Z" fill="white"/>
<path d="M517.078 724H525.778V722.46H518.778V710H517.078V724ZM534.786 720.76C534.466 722.02 533.426 722.74 531.786 722.74C529.886 722.74 528.506 721.26 528.386 719.18H536.266C536.286 719.04 536.306 718.7 536.306 718.48C536.306 715.8 534.546 713.76 531.606 713.76C528.646 713.76 526.806 715.94 526.806 718.9C526.806 721.78 528.806 724.16 531.786 724.16C534.286 724.16 536.066 722.82 536.406 720.76H534.786ZM531.606 715.12C533.406 715.12 534.546 716.2 534.666 717.9H528.466C528.766 716.12 529.906 715.12 531.606 715.12ZM538.461 724H540.061V718.56C540.061 716.6 541.301 715.22 543.021 715.22C544.541 715.22 545.541 716.38 545.541 718.1V724H547.141V717.84C547.141 715.38 545.661 713.76 543.381 713.76C541.841 713.76 540.581 714.46 540.061 715.86V713.92H538.461V724ZM554.069 724.16C555.489 724.16 556.809 723.44 557.409 722.34V724H559.009V709.78H557.409V715.56C556.809 714.48 555.489 713.76 554.069 713.76C550.929 713.76 549.209 716.02 549.209 718.96C549.209 721.9 550.929 724.16 554.069 724.16ZM554.209 722.72C552.189 722.72 550.849 721.24 550.849 718.96C550.849 716.68 552.189 715.2 554.209 715.2C556.229 715.2 557.549 716.68 557.549 718.96C557.549 721.24 556.229 722.72 554.209 722.72Z" fill="#161B19"/>
<rect x="445" y="687" width="186" height="58" rx="15" stroke="#161B19" stroke-width="2"/>
</g>
<g clip-path="url(#clip4_1_101)">
<path d="M1309 420C1309 315.066 1394.07 230 1499 230C1603.93 230 1689 315.066 1689 420V764.868C1689 768.807 1685.81 772 1681.87 772H1316.13C1312.19 772 1309 768.807 1309 764.868V420Z" fill="url(#paint1_angular_1_101)"/>
<rect x="1535" y="528" width="244" height="296" rx="12" fill="url(#paint2_angular_1_101)"/>
</g>
<defs>
<linearGradient id="paint0_linear_1_101" x1="1535.7" y1="130.424" x2="533.942" y2="1318.34" gradientUnits="userSpaceOnUse">
<stop stop-color="#C5E3DC"/>
<stop offset="1" stop-color="#FFD1D1"/>
</linearGradient>
<radialGradient id="paint1_angular_1_101" cx="0" cy="0" r="1" gradientUnits="userSpaceOnUse" gradientTransform="translate(1499 501) rotate(90) scale(271 190)">
<stop stop-color="#006A40"/>
<stop offset="1" stop-color="#898989" stop-opacity="0"/>
</radialGradient>
<radialGradient id="paint2_angular_1_101" cx="0" cy="0" r="1" gradientUnits="userSpaceOnUse" gradientTransform="translate(1657 676) rotate(-50.5004) scale(191.802 158.107)">
<stop stop-color="#E15B22"/>
<stop offset="1" stop-color="#898989" stop-opacity="0"/>
</radialGradient>
<clipPath id="clip0_1_101">
<rect width="79" height="28" fill="white" transform="translate(249.5 57)"/>
</clipPath>
<clipPath id="clip1_1_101">
<rect width="467" height="214" fill="white" transform="translate(240 308)"/>
</clipPath>
<clipPath id="clip2_1_101">
<rect width="540" height="52" fill="white" transform="translate(240 578)"/>
</clipPath>
<clipPath id="clip3_1_101">
<rect width="392" height="60" fill="white" transform="translate(240 686)"/>
</clipPath>
<clipPath id="clip4_1_101">
<rect width="470" height="594" fill="white" transform="translate(1309 230)"/>
</clipPath>
</defs>
</svg>
