<svg width="77" height="21" viewBox="0 0 77 21" fill="none" xmlns="http://www.w3.org/2000/svg">
<path d="M8.832 11.88L6.452 11.488C4.58533 11.152 3.13867 10.4987 2.112 9.528C1.08533 8.53867 0.572 7.25067 0.572 5.664C0.572 3.984 1.244 2.63067 2.588 1.604C3.932 0.577333 5.56533 0.0639997 7.488 0.0639997C10.344 0.0639997 12.7613 1.10933 14.74 3.2L12.416 5.664C10.9973 3.94667 9.308 3.088 7.348 3.088C6.228 3.088 5.37867 3.34 4.8 3.844C4.22133 4.32933 3.932 4.908 3.932 5.58C3.932 7.01733 5.01467 7.904 7.18 8.24L9.14 8.576C11.2493 8.912 12.8173 9.60267 13.844 10.648C14.8893 11.6933 15.412 13.0187 15.412 14.624C15.412 16.304 14.74 17.676 13.396 18.74C12.052 19.7853 10.2227 20.308 7.908 20.308C4.67867 20.308 2.07467 19.0573 0.0960001 16.556L2.364 14.26C3.07333 15.1933 3.88533 15.9307 4.8 16.472C5.73333 17.0133 6.90933 17.284 8.328 17.284C9.52267 17.284 10.4373 17.0413 11.072 16.556C11.7253 16.0707 12.052 15.4453 12.052 14.68C12.052 13.1867 10.9787 12.2533 8.832 11.88ZM24.0677 20.028C22.2944 20.028 21.0624 19.664 20.3717 18.936C19.6811 18.1893 19.3357 16.9293 19.3357 15.156V9.136H17.3197V6.28H19.3357V2.444H22.4997V6.28H25.7757V9.136H22.4997V14.68C22.4997 15.6693 22.6491 16.332 22.9477 16.668C23.2464 17.004 23.8437 17.172 24.7397 17.172L25.7757 17.116V19.972C25.3651 20.0093 24.7957 20.028 24.0677 20.028ZM36.9101 6.112V9.136C36.7608 9.11733 36.5928 9.108 36.4061 9.108C34.8381 9.108 33.7368 9.54667 33.1021 10.424C32.4861 11.3013 32.1781 12.7013 32.1781 14.624V20H28.9861V6.28H32.1221V7.764C33.0554 6.644 34.4461 6.084 36.2941 6.084C36.4808 6.084 36.6861 6.09333 36.9101 6.112ZM50.998 14.092H41.618C41.6927 15.1187 42.0567 15.9307 42.71 16.528C43.3634 17.1253 44.2034 17.424 45.23 17.424C46.7047 17.424 47.8807 16.78 48.758 15.492L50.914 17.508C49.458 19.3747 47.5634 20.308 45.23 20.308C43.1767 20.308 41.5154 19.6547 40.246 18.348C38.9767 17.0227 38.342 15.3147 38.342 13.224C38.342 11.1707 38.9207 9.444 40.078 8.044C41.254 6.644 42.8127 5.944 44.754 5.944C45.818 5.944 46.7607 6.14933 47.582 6.56C48.422 6.952 49.0847 7.49333 49.57 8.184C50.0554 8.856 50.4194 9.60267 50.662 10.424C50.9047 11.2267 51.026 12.076 51.026 12.972L50.998 14.092ZM44.782 8.856C43.942 8.856 43.27 9.11733 42.766 9.64C42.262 10.1627 41.9354 10.7973 41.786 11.544H47.638C47.6194 10.8347 47.3767 10.2093 46.91 9.668C46.462 9.12667 45.7527 8.856 44.782 8.856ZM66.3926 14.092H57.0126C57.0872 15.1187 57.4512 15.9307 58.1046 16.528C58.7579 17.1253 59.5979 17.424 60.6246 17.424C62.0992 17.424 63.2752 16.78 64.1526 15.492L66.3086 17.508C64.8526 19.3747 62.9579 20.308 60.6246 20.308C58.5712 20.308 56.9099 19.6547 55.6406 18.348C54.3712 17.0227 53.7366 15.3147 53.7366 13.224C53.7366 11.1707 54.3152 9.444 55.4726 8.044C56.6486 6.644 58.2072 5.944 60.1486 5.944C61.2126 5.944 62.1552 6.14933 62.9766 6.56C63.8166 6.952 64.4792 7.49333 64.9646 8.184C65.4499 8.856 65.8139 9.60267 66.0566 10.424C66.2992 11.2267 66.4206 12.076 66.4206 12.972L66.3926 14.092ZM60.1766 8.856C59.3366 8.856 58.6646 9.11733 58.1606 9.64C57.6566 10.1627 57.3299 10.7973 57.1806 11.544H63.0326C63.0139 10.8347 62.7712 10.2093 62.3046 9.668C61.8566 9.12667 61.1472 8.856 60.1766 8.856ZM74.4623 20.028C72.6889 20.028 71.4569 19.664 70.7663 18.936C70.0756 18.1893 69.7303 16.9293 69.7303 15.156V9.136H67.7143V6.28H69.7303V2.444H72.8943V6.28H76.1703V9.136H72.8943V14.68C72.8943 15.6693 73.0436 16.332 73.3423 16.668C73.6409 17.004 74.2383 17.172 75.1343 17.172L76.1703 17.116V19.972C75.7596 20.0093 75.1903 20.028 74.4623 20.028Z" fill="#293033"/>
</svg>
